<svg width="37" height="52" viewBox="0 0 37 52" fill="none" xmlns="http://www.w3.org/2000/svg">
<path d="M35.053 0.000549316H4.73334C2.45351 0.000549316 0.598816 1.98717 0.598816 4.42917V46.7468C0.598816 49.1887 2.45351 51.1753 4.73334 51.1753H35.053C35.8142 51.1753 36.4312 50.5144 36.4312 49.6992V1.47672C36.4312 0.661524 35.8141 0.000549316 35.053 0.000549316ZM7.48963 6.3974H29.5403C30.3015 6.3974 30.9185 7.05837 30.9185 7.87357C30.9185 8.68877 30.3014 9.34974 29.5403 9.34974H7.48963C6.72848 9.34974 6.11149 8.68877 6.11149 7.87357C6.11149 7.05837 6.72857 6.3974 7.48963 6.3974ZM7.48963 14.2704H18.5609C19.3221 14.2704 19.939 14.9314 19.939 15.7466C19.939 16.5618 19.322 17.2228 18.5609 17.2228H7.48963C6.72848 17.2228 6.11149 16.5618 6.11149 15.7466C6.11149 14.9314 6.72857 14.2704 7.48963 14.2704ZM33.6749 48.223H4.73334C3.9734 48.223 3.3552 47.5608 3.3552 46.7468V44.7785H33.6749V48.223Z" fill="black"/>
</svg>
