<svg width="26" height="44" viewBox="0 0 26 44" fill="none" xmlns="http://www.w3.org/2000/svg">
<path fill-rule="evenodd" clip-rule="evenodd" d="M1.34483 0.0945435C0.966984 0.0945435 0.606571 0.285082 0.351789 0.619519C0.09699 0.953955 -0.0286704 1.40145 0.00552404 1.85248L1.79862 25.4952C1.8616 26.3255 2.44238 26.9612 3.13793 26.9612H10.4629L8.09513 41.1531C7.97374 41.8804 8.28215 42.6131 8.84231 42.9284C9.4023 43.2437 10.0697 43.06 10.459 42.4835L25.7003 19.9155C26.0265 19.4325 26.0921 18.768 25.8689 18.2072C25.6456 17.6462 25.1735 17.2892 24.6551 17.2892H16.5862L25.731 2.67374C26.0367 2.18529 26.0858 1.53176 25.8579 0.985636C25.6302 0.439511 25.1645 0.0945435 24.6551 0.0945435H1.34483Z" fill="black"/>
</svg>
