<svg width="51" height="49" viewBox="0 0 51 49" fill="none" xmlns="http://www.w3.org/2000/svg">
<path fill-rule="evenodd" clip-rule="evenodd" d="M38.2212 2.11179C41.1334 -0.693196 45.8676 -0.705558 48.7962 2.08468C51.7227 4.87412 51.7353 9.40979 48.8248 12.2124L36.0472 24.5055L48.8382 36.8097C51.7248 39.5924 51.6857 44.0993 48.7508 46.8776C45.8151 49.6547 41.0951 49.6475 38.2094 46.8652L25.5059 34.6459L12.7784 46.888C9.86617 49.693 5.13193 49.7053 2.20335 46.9151C-0.723131 44.1256 -0.736164 39.59 2.17476 36.7874L14.9523 24.4943L2.16173 12.1897C-0.725233 9.407 -0.685714 4.90004 2.24917 2.12176C5.1849 -0.654914 9.90485 -0.648134 12.7905 2.13413L25.4941 14.3538L38.2212 2.11179Z" fill="black"/>
</svg>
