<svg width="40" height="40" viewBox="0 0 40 40" fill="none" xmlns="http://www.w3.org/2000/svg">
<path d="M20 0C8.97186 0 0 8.97194 0 20C0 31.0281 8.97186 40 20 40C31.0281 40 40 31.0281 40 20C40 8.97194 31.0281 0 20 0ZM20 37.5765C10.3084 37.5765 2.42352 29.6917 2.42352 20C2.42352 10.3083 10.3084 2.42354 20 2.42354C29.6916 2.42354 37.5765 10.3083 37.5765 20C37.5765 29.6917 29.6918 37.5765 20 37.5765Z" fill="black"/>
<path d="M21.4961 16.9999L28.333 7.55953C28.7257 7.01746 28.6045 6.25987 28.0624 5.86725C27.5202 5.4748 26.7629 5.59582 26.3702 6.13788L20 14.934L13.6294 6.13804C13.2368 5.59582 12.479 5.4748 11.9371 5.86741C11.3952 6.26003 11.2741 7.01763 11.6665 7.55969L18.5036 17L11.6665 26.4405C11.2739 26.9826 11.3951 27.7402 11.9371 28.1328C12.152 28.2884 12.4005 28.3632 12.6471 28.3632C13.0222 28.3632 13.3924 28.1893 13.6294 27.8622L20 19.066L26.3706 27.8622C26.6077 28.1893 26.9777 28.3632 27.353 28.3632C27.5994 28.3632 27.848 28.2884 28.0627 28.1328C28.6048 27.7402 28.726 26.9826 28.3334 26.4405L21.4961 16.9999Z" fill="black"/>
</svg>
