<svg width="45" height="47" viewBox="0 0 45 47" fill="none" xmlns="http://www.w3.org/2000/svg">
<path d="M44.4328 43.4788L31.5217 30.2548C34.067 27.1305 35.5979 23.1379 35.5979 18.7771C35.5979 8.82843 27.6207 0.739258 17.8082 0.739258C7.9957 0.739258 0 8.83787 0 18.7865C0 28.7352 7.97725 36.8243 17.7897 36.8243C21.9582 36.8243 25.7947 35.3613 28.838 32.9166L41.7953 46.1783C42.5515 46.9523 43.6766 46.9523 44.4328 46.1783C45.1891 45.4043 45.1891 44.2528 44.4328 43.4788ZM3.78112 18.7865C3.78112 10.9711 10.0707 4.61866 17.7897 4.61866C25.5088 4.61866 31.7983 10.9711 31.7983 18.7865C31.7983 26.602 25.5088 32.9544 17.7897 32.9544C10.0707 32.9544 3.78112 26.5925 3.78112 18.7865Z" fill="#C4C4C4"/>
</svg>
