<svg width="42" height="40" viewBox="0 0 42 40" fill="none" xmlns="http://www.w3.org/2000/svg">
<path d="M21.1194 0C21.1141 0 21.1069 0.000882788 21.1015 0.000882788C21.0953 0.000882788 21.0899 0 21.0836 0C9.8958 0 0.824707 8.94617 0.824707 19.9828C0.824707 31.0176 9.8958 39.9647 21.0836 39.9647C21.0899 39.9647 21.0953 39.9647 21.1015 39.9647C21.1069 39.9647 21.1141 39.9647 21.1194 39.9647C32.3073 39.9647 41.3784 31.0176 41.3784 19.9828C41.3793 8.94617 32.3082 0 21.1194 0ZM21.1194 34.2442C21.1141 34.2442 21.1069 34.2433 21.1015 34.2433C21.0953 34.2433 21.0899 34.2442 21.0836 34.2442C19.2524 34.2442 17.7676 32.7806 17.7676 30.9735C17.7676 29.1682 19.2524 27.7045 21.0836 27.7045C21.0899 27.7045 21.0953 27.7045 21.1015 27.7045C21.1069 27.7045 21.1141 27.7045 21.1194 27.7045C22.9498 27.7045 24.4364 29.1682 24.4364 30.9735C24.4364 32.7797 22.9524 34.2442 21.1194 34.2442ZM25.8747 9.32047C25.6581 12.5841 24.1455 22.2904 24.1455 22.2904C24.1455 23.9271 22.786 25.253 21.1266 25.253C21.1176 25.253 21.1087 25.253 21.1006 25.253C21.0926 25.253 21.0827 25.253 21.0747 25.253C19.4162 25.253 18.0567 23.9253 18.0567 22.2904C18.0567 22.2904 16.545 12.5841 16.3284 9.32047C16.221 7.68643 17.4901 4.65229 21.0756 4.65229C21.0845 4.65229 21.0935 4.65317 21.1015 4.65317C21.1096 4.65317 21.1185 4.65229 21.1275 4.65229C24.7121 4.65229 25.983 7.68643 25.8747 9.32047Z" fill="black"/>
</svg>
